<svg viewBox="0 0 245 37" fill="none" xmlns="http://www.w3.org/2000/svg">
<defs><style>.cls-1{fill:#fff;}</style></defs>
<path class="cls-1" d="M8.48384 5.95009C8.48384 4.35009 8.53384 4.15009 11.1838 4.15009C16.3838 4.15009 19.2338 7.30009 19.2338 12.1501C19.2338 16.5001 17.2838 19.5501 11.8838 20.5501C11.5838 20.6501 11.5838 21.4001 11.9338 21.5501C14.3139 21.5422 16.6653 21.031 18.8338 20.0501C20.3583 19.3656 21.6463 18.2457 22.5359 16.8311C23.4256 15.4166 23.8771 13.7706 23.8338 12.1001C23.8701 10.6112 23.5209 9.13822 22.8201 7.82411C22.1192 6.51 21.0905 5.39939 19.8338 4.60009C17.4838 3.15009 14.3838 2.60009 10.2338 2.60009C6.92871 2.5257 3.62219 2.6593 0.333844 3.00009C0.23878 3.0711 0.15994 3.16156 0.102581 3.26543C0.0452226 3.3693 0.0106567 3.4842 0.00119443 3.60248C-0.00826786 3.72076 0.00758764 3.8397 0.0477032 3.95136C0.0878188 4.06303 0.151272 4.16487 0.233838 4.25009L2.03384 4.45009C4.28384 4.70009 4.38384 5.55009 4.38384 9.80009V28.2501C4.38384 33.5001 4.28384 34.1001 1.38384 34.5001L0.333844 34.6501C0.200058 34.8366 0.136696 35.0646 0.155003 35.2934C0.17331 35.5222 0.2721 35.7372 0.433842 35.9001C2.63384 35.8001 4.43384 35.7501 6.53384 35.7501C8.53384 35.7501 10.1838 35.8001 13.0338 35.9001C13.1943 35.7365 13.2923 35.5217 13.3105 35.2932C13.3288 35.0648 13.2663 34.8371 13.1338 34.6501L11.7838 34.5001C8.58384 34.1501 8.48384 33.5001 8.48384 28.2501V5.95009ZM28.4838 27.5501C25.2838 28.7001 24.3338 29.8501 24.3338 31.8001C24.3308 32.4598 24.4673 33.1127 24.7345 33.7159C25.0016 34.3191 25.3933 34.859 25.8838 35.3001C26.8699 36.0998 28.1156 36.5091 29.3838 36.4501C30.6724 36.3549 31.9135 35.9239 32.9838 35.2001C33.5827 34.7752 34.2394 34.4385 34.9338 34.2001C35.2338 34.2001 35.5338 34.6001 35.7338 34.9001C36.1162 35.3951 36.6095 35.7933 37.1741 36.0625C37.7386 36.3318 38.3585 36.4645 38.9838 36.4501C39.8075 36.4389 40.6169 36.2339 41.3466 35.8517C42.0762 35.4694 42.7056 34.9208 43.1838 34.2501C43.1838 33.9001 43.0338 33.6001 42.8338 33.6001C42.6838 33.6001 42.4338 33.8001 42.1838 33.9501C41.7952 34.1432 41.3678 34.2458 40.9338 34.2501C38.9838 34.2501 38.5338 32.2001 38.6338 29.9001L38.9338 21.2001C39.0838 17.4501 37.3338 15.3501 33.7338 15.3501C30.0838 15.3501 24.4338 18.9001 24.4338 21.5001C24.4232 21.5946 24.4339 21.6903 24.4654 21.7801C24.4968 21.8699 24.548 21.9514 24.6152 22.0187C24.6825 22.0859 24.7641 22.1372 24.8538 22.1686C24.9436 22.2 25.0393 22.2108 25.1338 22.2001C26.1548 22.1605 27.1433 21.831 27.9838 21.2501C28.3838 20.9501 28.4338 20.3501 28.4838 19.5501C28.5838 18.0001 30.2838 17.3001 31.6838 17.3001C34.7838 17.3001 35.3838 19.8001 35.3338 21.6501L35.2838 23.9501C35.2838 24.7001 35.1838 25.1501 34.4338 25.4001L28.4838 27.5501ZM28.1838 31.2001C28.1838 29.2501 29.6338 28.5001 32.5838 27.5001C33.2463 27.2573 33.934 27.0896 34.6338 27.0001C34.9338 27.0001 35.1338 27.1001 35.1338 27.6501L35.0338 30.6001C34.9838 31.6501 34.9838 32.3501 34.3838 32.9501C33.5139 33.6604 32.4521 34.0956 31.3338 34.2001C30.9279 34.2184 30.5225 34.1545 30.1419 34.0121C29.7613 33.8698 29.4134 33.6519 29.1192 33.3717C28.825 33.0915 28.5904 32.7546 28.4297 32.3815C28.2689 32.0083 28.1853 31.6064 28.1838 31.2001ZM55.9338 15.3501C47.6338 15.3501 43.8338 21.1001 43.8338 26.5001C43.783 27.8666 44.0143 29.2289 44.5132 30.5021C45.0122 31.7753 45.7681 32.932 46.7338 33.9001C48.5967 35.6118 51.0552 36.527 53.5838 36.4501C55.3166 36.4823 57.0226 36.0196 58.5016 35.1162C59.9806 34.2129 61.1713 32.9064 61.9338 31.3501C61.923 31.2441 61.8907 31.1414 61.8391 31.0482C61.7874 30.955 61.7175 30.8733 61.6334 30.8078C61.5493 30.7424 61.4528 30.6947 61.3497 30.6676C61.2467 30.6405 61.1392 30.6345 61.0338 30.6501C60.47 31.6085 59.655 32.3946 58.6768 32.9233C57.6986 33.4521 56.5945 33.7034 55.4838 33.6501C50.1338 33.6501 47.4338 29.0001 47.4338 25.1001C47.4338 19.8001 50.8338 17.0501 54.3338 17.0501C55.3084 17.1082 56.2591 17.3749 57.1217 17.832C57.9843 18.2892 58.7386 18.9263 59.3338 19.7001C59.4152 19.8089 59.5209 19.8972 59.6424 19.9579C59.7639 20.0187 59.898 20.0502 60.0338 20.0501C60.6338 20.0501 61.1338 19.1001 61.1338 18.2001C61.1543 17.4611 60.8851 16.7434 60.3838 16.2001C58.9648 15.6474 57.4566 15.3593 55.9338 15.3501ZM66.1838 30.1501C66.1838 33.7501 66.1338 34.2501 64.2838 34.5001L63.2338 34.6501C63.1568 34.738 63.0983 34.8405 63.0615 34.9515C63.0248 35.0625 63.0107 35.1797 63.02 35.2962C63.0293 35.4127 63.0619 35.5262 63.1158 35.6299C63.1697 35.7336 63.2438 35.8255 63.3338 35.9001C64.7338 35.8001 66.2338 35.7501 68.0338 35.7501C69.7838 35.7501 71.2338 35.8001 72.7338 35.9001C72.8238 35.8255 72.898 35.7336 72.9519 35.6299C73.0058 35.5262 73.0383 35.4127 73.0477 35.2962C73.057 35.1797 73.0429 35.0625 73.0061 34.9515C72.9694 34.8405 72.9108 34.738 72.8338 34.6501L71.7838 34.5001C69.9838 34.2501 69.8838 33.7501 69.8838 30.1501V21.1501C69.8838 19.1001 69.9838 16.7001 70.0838 14.9501C70.0477 14.8502 69.9782 14.7659 69.8871 14.7112C69.7961 14.6566 69.689 14.635 69.5838 14.6501C67.9381 15.6081 66.2155 16.4276 64.4338 17.1001C64.3178 17.2186 64.2488 17.3751 64.2396 17.5407C64.2304 17.7062 64.2817 17.8695 64.3838 18.0001L64.8338 18.3001C66.1838 19.2001 66.1838 19.4501 66.1838 21.4001V30.1501ZM67.8338 4.55009C67.4755 4.53602 67.1181 4.59624 66.7842 4.72694C66.4502 4.85765 66.1469 5.05603 65.8934 5.30961C65.6398 5.56319 65.4414 5.86649 65.3107 6.20043C65.18 6.53438 65.1198 6.89175 65.1338 7.25009C65.1278 7.58433 65.1899 7.91629 65.3166 8.22566C65.4432 8.53504 65.6317 8.81532 65.8704 9.04935C66.1091 9.28337 66.393 9.46623 66.7048 9.58672C67.0167 9.70721 67.3498 9.7628 67.6838 9.75009C68.035 9.77977 68.3885 9.73329 68.7201 9.61383C69.0517 9.49437 69.3536 9.30475 69.6052 9.05791C69.8568 8.81107 70.0521 8.51283 70.1779 8.18358C70.3036 7.85432 70.3568 7.5018 70.3338 7.15009C70.3473 6.81347 70.2926 6.4776 70.173 6.16265C70.0534 5.84769 69.8714 5.56016 69.6379 5.31732C69.4044 5.07448 69.1242 4.88133 68.8142 4.74949C68.5042 4.61765 68.1707 4.54982 67.8338 4.55009ZM78.1338 30.1501C78.1338 33.7501 78.0838 34.2501 76.2338 34.5001L75.0838 34.6501C75.0068 34.738 74.9483 34.8405 74.9115 34.9515C74.8748 35.0625 74.8607 35.1797 74.87 35.2962C74.8793 35.4127 74.9119 35.5262 74.9658 35.6299C75.0197 35.7336 75.0939 35.8255 75.1838 35.9001C76.6838 35.8001 78.1838 35.7501 79.9838 35.7501C81.7338 35.7501 83.1838 35.8001 85.2338 35.9001C85.3238 35.8255 85.398 35.7336 85.4519 35.6299C85.5058 35.5262 85.5383 35.4127 85.5477 35.2962C85.557 35.1797 85.5429 35.0625 85.5061 34.9515C85.4694 34.8405 85.4108 34.738 85.3338 34.6501L83.7338 34.5001C81.9338 34.3501 81.8338 33.7501 81.8338 30.1501V19.7001C81.8338 18.5001 81.9338 18.1501 82.7838 18.1501H89.0338C91.1838 18.1501 91.5338 18.4001 91.5338 21.4501V30.1501C91.5338 33.7501 91.4838 34.2501 89.6338 34.5001L88.5838 34.6501C88.5068 34.738 88.4483 34.8405 88.4115 34.9515C88.3748 35.0625 88.3607 35.1797 88.37 35.2962C88.3793 35.4127 88.4119 35.5262 88.4658 35.6299C88.5197 35.7336 88.5939 35.8255 88.6838 35.9001C90.0838 35.8001 91.5838 35.7501 93.3838 35.7501C95.1338 35.7501 96.5838 35.8001 98.0838 35.9001C98.1738 35.8255 98.248 35.7336 98.3019 35.6299C98.3558 35.5262 98.3883 35.4127 98.3977 35.2962C98.407 35.1797 98.3929 35.0625 98.3561 34.9515C98.3194 34.8405 98.2608 34.738 98.1838 34.6501L97.1338 34.5001C95.3338 34.2501 95.2338 33.7501 95.2338 30.1501V21.8501C95.2338 19.8001 95.3338 17.4001 95.4338 15.6001C95.3762 15.5219 95.3008 15.4585 95.2139 15.415C95.127 15.3715 95.031 15.3493 94.9338 15.3501C92.7892 15.861 90.5881 16.0962 88.3838 16.0501H82.7838C81.9338 16.0501 81.8338 15.7501 81.8338 14.5001V13.9501C81.8338 6.20009 83.6338 1.90009 87.5338 1.90009C88.8338 1.90009 90.7838 2.75009 92.2338 5.20009C92.358 5.43475 92.5459 5.6296 92.7759 5.76227C93.0058 5.89494 93.2685 5.96004 93.5338 5.95009C93.8036 5.95195 94.071 5.9002 94.3205 5.79784C94.5701 5.69547 94.7968 5.54454 94.9876 5.35381C95.1783 5.16308 95.3292 4.93635 95.4316 4.68679C95.534 4.43723 95.5857 4.16982 95.5838 3.90009C95.5838 1.80009 92.7838 9.19561e-05 89.3838 9.19561e-05C87.2805 0.0388752 85.236 0.701006 83.5092 1.90262C81.7824 3.10424 80.4511 4.79128 79.6838 6.75009C78.5987 9.41479 78.0712 12.2736 78.1338 15.1501C78.1204 15.3719 78.0422 15.5849 77.9089 15.7626C77.7756 15.9404 77.593 16.0751 77.3838 16.1501L75.2338 17.2001C75.1327 17.3476 75.092 17.5283 75.1199 17.7049C75.1478 17.8816 75.2422 18.0409 75.3838 18.1501H77.1338C78.1338 18.1501 78.1338 18.2501 78.1338 19.6001V30.1501ZM112.634 15.3501C104.334 15.3501 100.534 21.1001 100.534 26.5001C100.483 27.8666 100.714 29.2289 101.213 30.5021C101.712 31.7753 102.468 32.932 103.434 33.9001C105.297 35.6118 107.755 36.527 110.284 36.4501C112.017 36.4823 113.723 36.0196 115.202 35.1162C116.681 34.2129 117.871 32.9064 118.634 31.3501C118.623 31.2441 118.591 31.1414 118.539 31.0482C118.487 30.955 118.417 30.8733 118.333 30.8078C118.249 30.7424 118.153 30.6947 118.05 30.6676C117.947 30.6405 117.839 30.6345 117.734 30.6501C117.17 31.6085 116.355 32.3946 115.377 32.9233C114.399 33.4521 113.295 33.7034 112.184 33.6501C106.834 33.6501 104.134 29.0001 104.134 25.1001C104.134 19.8001 107.534 17.0501 111.034 17.0501C112.008 17.1082 112.959 17.3749 113.822 17.832C114.684 18.2892 115.439 18.9263 116.034 19.7001C116.115 19.8089 116.221 19.8972 116.342 19.9579C116.464 20.0187 116.598 20.0502 116.734 20.0501C117.334 20.0501 117.834 19.1001 117.834 18.2001C117.854 17.4611 117.585 16.7434 117.084 16.2001C115.665 15.6474 114.157 15.3593 112.634 15.3501ZM136.134 28.2501C136.134 33.5001 136.034 34.0501 133.384 34.5001L132.484 34.6501C132.35 34.8366 132.287 35.0646 132.305 35.2934C132.323 35.5222 132.422 35.7372 132.584 35.9001C134.434 35.8501 136.134 35.7501 138.334 35.7501C140.434 35.7501 142.884 35.9001 144.334 35.9001C153.334 35.9001 157.634 32.0001 157.634 26.2001C157.688 24.24 157.044 22.3246 155.817 20.7953C154.589 19.2659 152.859 18.2222 150.934 17.8501C150.384 17.7501 149.984 17.6001 149.984 17.1001C152.984 15.7001 155.084 13.8501 155.084 10.2501C155.142 8.94885 154.812 7.65971 154.135 6.54673C153.458 5.43376 152.466 4.54727 151.284 4.00009C149.034 2.85009 146.034 2.60009 142.884 2.60009C138.234 2.60009 134.834 2.75009 132.134 3.00009C132.037 3.07121 131.957 3.16325 131.901 3.26936C131.844 3.37548 131.813 3.49296 131.808 3.61305C131.803 3.73315 131.825 3.85279 131.873 3.96307C131.921 4.07336 131.993 4.17146 132.084 4.25009L133.684 4.40009C135.934 4.60009 136.134 5.55009 136.134 9.25009V28.2501ZM140.234 20.1001C140.234 19.1001 140.434 18.8001 143.134 18.8001C151.084 18.8001 153.084 23.4001 153.084 27.3501C153.084 32.3501 149.684 34.3501 145.234 34.3501C144.513 34.4267 143.783 34.3407 143.1 34.0984C142.416 33.8562 141.796 33.4638 141.284 32.9501C140.334 31.8501 140.234 29.3001 140.234 27.5001V20.1001ZM140.234 5.75009C140.234 4.85009 140.434 4.60009 140.934 4.45009C141.675 4.20521 142.455 4.1034 143.234 4.15009C147.034 4.15009 150.684 6.00009 150.684 10.9001C150.684 15.6001 147.934 17.1001 142.834 17.3001C140.284 17.4001 140.234 17.3001 140.234 15.9001V5.75009ZM171.634 15.3501C170.217 15.3303 168.811 15.5972 167.5 16.1348C166.189 16.6725 165 17.4697 164.005 18.4786C163.01 19.4875 162.23 20.6872 161.711 22.0056C161.191 23.324 160.944 24.7337 160.984 26.1501C160.925 27.514 161.15 28.8753 161.644 30.1481C162.138 31.4209 162.89 32.5775 163.853 33.5452C164.816 34.5129 165.969 35.2706 167.239 35.7706C168.509 36.2705 169.87 36.5019 171.234 36.4501C177.484 36.4501 181.784 31.9501 181.784 25.7001C181.833 24.3446 181.606 22.9933 181.116 21.7285C180.626 20.4638 179.883 19.3121 178.933 18.3436C177.984 17.3752 176.847 16.6104 175.592 16.0957C174.337 15.581 172.99 15.3273 171.634 15.3501ZM177.484 26.5001C177.484 30.3501 176.134 34.9501 171.734 34.9501C167.334 34.9501 165.284 30.0501 165.284 25.5001C165.284 20.0001 167.734 16.8501 171.034 16.8501C175.784 16.8501 177.484 22.2501 177.484 26.5001ZM195.184 15.3501C193.767 15.3303 192.361 15.5972 191.05 16.1348C189.739 16.6725 188.55 17.4697 187.555 18.4786C186.56 19.4875 185.78 20.6872 185.261 22.0056C184.741 23.324 184.494 24.7337 184.534 26.1501C184.475 27.514 184.7 28.8753 185.194 30.1481C185.688 31.4209 186.44 32.5775 187.403 33.5452C188.366 34.5129 189.519 35.2706 190.789 35.7706C192.059 36.2705 193.42 36.5019 194.784 36.4501C201.034 36.4501 205.334 31.9501 205.334 25.7001C205.383 24.3446 205.156 22.9933 204.666 21.7285C204.176 20.4638 203.433 19.3121 202.483 18.3436C201.534 17.3752 200.397 16.6104 199.142 16.0957C197.887 15.581 196.54 15.3273 195.184 15.3501ZM201.034 26.5001C201.034 30.3501 199.684 34.9501 195.284 34.9501C190.884 34.9501 188.834 30.0501 188.834 25.5001C188.834 20.0001 191.284 16.8501 194.584 16.8501C199.334 16.8501 201.034 22.2501 201.034 26.5001ZM210.734 30.1501C210.734 33.7501 210.684 34.2501 208.834 34.5001L207.734 34.6501C207.648 34.7318 207.581 34.8307 207.536 34.9405C207.492 35.0502 207.471 35.1681 207.476 35.2864C207.481 35.4047 207.511 35.5206 207.564 35.6264C207.617 35.7322 207.692 35.8255 207.784 35.9001C209.284 35.8001 210.784 35.7501 212.584 35.7501C214.334 35.7501 215.784 35.8001 217.434 35.9001C217.524 35.8255 217.598 35.7336 217.652 35.6299C217.706 35.5262 217.738 35.4127 217.748 35.2962C217.757 35.1797 217.743 35.0625 217.706 34.9515C217.669 34.8405 217.611 34.738 217.534 34.6501L216.334 34.5001C214.534 34.2501 214.434 33.7501 214.434 30.1501V27.4001C214.434 25.8501 214.484 25.7001 215.384 25.7001C215.677 25.6977 215.968 25.759 216.236 25.8799C216.503 26.0007 216.742 26.1782 216.934 26.4001L222.284 32.6001C222.934 33.3501 223.134 33.7001 223.134 34.0001C223.134 34.3001 222.634 34.4001 221.884 34.5001L220.984 34.6501C220.902 34.7358 220.839 34.8377 220.8 34.9493C220.76 35.0608 220.745 35.1795 220.754 35.2975C220.764 35.4155 220.798 35.5301 220.855 35.634C220.912 35.7378 220.99 35.8285 221.084 35.9001C222.534 35.8001 224.284 35.7501 226.284 35.7501C227.884 35.7501 229.584 35.8001 231.034 35.9001C231.434 35.7501 231.484 34.9001 231.134 34.6501L230.434 34.5501C229.48 34.4389 228.578 34.0572 227.834 33.4501C226.834 32.5001 225.084 30.5501 223.134 28.3501C221.951 27.0737 220.833 25.7386 219.784 24.3501C219.484 23.9501 219.534 23.7001 220.134 23.1501C221.034 22.3001 222.734 20.5001 224.684 18.9501C225.569 18.1099 226.653 17.5078 227.834 17.2001L229.434 16.9001C229.734 16.6501 229.684 15.8001 229.334 15.6501C226.692 15.9184 224.039 16.0519 221.384 16.0501H220.234C220.13 16.118 220.045 16.2107 219.986 16.3199C219.927 16.429 219.896 16.5511 219.896 16.6751C219.896 16.7991 219.927 16.9212 219.986 17.0303C220.045 17.1394 220.13 17.2322 220.234 17.3001L221.434 17.4501C222.284 17.5501 222.534 17.7001 222.534 17.9501C222.534 18.2001 222.184 18.7501 220.784 20.2501L218.734 22.4501C217.384 23.8501 216.434 24.4001 215.334 24.4001C214.484 24.4001 214.434 24.3001 214.434 23.6501V6.50009C214.434 4.30009 214.534 1.80009 214.584 0.300091C214.537 0.208249 214.465 0.131422 214.377 0.0783772C214.288 0.0253326 214.187 -0.00179293 214.084 9.19561e-05C212.344 0.846147 210.538 1.54849 208.684 2.10009C208.563 2.23857 208.496 2.41621 208.496 2.60009C208.496 2.78397 208.563 2.96161 208.684 3.10009L209.184 3.40009C210.684 4.30009 210.734 4.60009 210.734 7.55009V30.1501ZM238.984 15.3501C235.184 15.3501 232.184 17.4001 232.184 21.0501C232.184 23.8001 234.234 25.5501 237.134 27.2001C238.984 28.2501 240.984 29.5001 240.984 31.8001C241.003 32.2383 240.928 32.6755 240.764 33.0823C240.6 33.4892 240.351 33.8564 240.034 34.1594C239.717 34.4623 239.339 34.6941 238.925 34.8391C238.511 34.984 238.071 35.0389 237.634 35.0001C234.784 35.0001 233.184 32.6001 232.334 29.8501C232.171 29.7125 231.962 29.6412 231.749 29.6504C231.536 29.6597 231.334 29.7488 231.184 29.9001C231.092 31.6054 231.295 33.3137 231.784 34.9501C233.342 36.0486 235.231 36.5782 237.134 36.4501C240.834 36.4501 244.334 34.5501 244.334 30.7501C244.334 27.2001 241.884 25.5001 239.234 24.0001C237.484 23.0001 235.384 21.9001 235.384 19.8501C235.369 19.4326 235.443 19.0167 235.6 18.6299C235.758 18.243 235.996 17.8939 236.298 17.6057C236.601 17.3175 236.961 17.0967 237.355 16.9578C237.749 16.8189 238.168 16.7652 238.584 16.8001C240.634 16.8001 242.134 18.2501 242.984 20.4501C243.164 20.5853 243.39 20.6453 243.614 20.6173C243.838 20.5893 244.042 20.4756 244.184 20.3001C244.16 18.9133 243.889 17.5419 243.384 16.2501C242.019 15.5766 240.504 15.2666 238.984 15.3501Z" fill="currentColor"/>
</svg>
